<mxfile host="app.diagrams.net" modified="2023-08-01T01:48:04.966Z" agent="Mozilla/5.0 (Windows NT 10.0; Win64; x64) AppleWebKit/537.36 (KHTML, like Gecko) Chrome/115.0.0.0 Safari/537.36" etag="8u2WVgje9ZMqatk0ftuf" version="21.6.6" type="github">
  <diagram id="prtHgNgQTEPvFCAcTncT" name="Page-1">
    <mxGraphModel dx="1860" dy="1909" grid="1" gridSize="10" guides="1" tooltips="1" connect="1" arrows="1" fold="1" page="1" pageScale="1" pageWidth="827" pageHeight="1169" math="0" shadow="0">
      <root>
        <mxCell id="0" />
        <mxCell id="1" parent="0" />
        <mxCell id="vGOoMCBMk2-ikO05M16r-1" value="시설번호" style="ellipse;whiteSpace=wrap;html=1;" vertex="1" parent="1">
          <mxGeometry x="-140" y="-400" width="120" height="80" as="geometry" />
        </mxCell>
        <mxCell id="vGOoMCBMk2-ikO05M16r-2" value="TB_FACILITY" style="whiteSpace=wrap;html=1;aspect=fixed;" vertex="1" parent="1">
          <mxGeometry x="320" y="430" width="80" height="80" as="geometry" />
        </mxCell>
        <mxCell id="vGOoMCBMk2-ikO05M16r-3" value="" style="rhombus;whiteSpace=wrap;html=1;" vertex="1" parent="1">
          <mxGeometry x="540" y="350" width="80" height="80" as="geometry" />
        </mxCell>
        <mxCell id="vGOoMCBMk2-ikO05M16r-4" value="" style="endArrow=none;html=1;rounded=0;exitX=1;exitY=0.5;exitDx=0;exitDy=0;entryX=0;entryY=0.5;entryDx=0;entryDy=0;" edge="1" parent="1" source="vGOoMCBMk2-ikO05M16r-1" target="vGOoMCBMk2-ikO05M16r-2">
          <mxGeometry width="50" height="50" relative="1" as="geometry">
            <mxPoint x="340" y="390" as="sourcePoint" />
            <mxPoint x="390" y="340" as="targetPoint" />
          </mxGeometry>
        </mxCell>
        <mxCell id="vGOoMCBMk2-ikO05M16r-5" value="이름" style="ellipse;whiteSpace=wrap;html=1;" vertex="1" parent="1">
          <mxGeometry x="-140" y="-305" width="120" height="80" as="geometry" />
        </mxCell>
        <mxCell id="vGOoMCBMk2-ikO05M16r-6" value="" style="endArrow=none;html=1;rounded=0;exitX=1;exitY=0.5;exitDx=0;exitDy=0;entryX=0;entryY=0.5;entryDx=0;entryDy=0;" edge="1" parent="1" source="vGOoMCBMk2-ikO05M16r-5" target="vGOoMCBMk2-ikO05M16r-2">
          <mxGeometry width="50" height="50" relative="1" as="geometry">
            <mxPoint x="110" y="565" as="sourcePoint" />
            <mxPoint x="320" y="545" as="targetPoint" />
          </mxGeometry>
        </mxCell>
        <mxCell id="vGOoMCBMk2-ikO05M16r-7" value="구분" style="ellipse;whiteSpace=wrap;html=1;" vertex="1" parent="1">
          <mxGeometry x="-140" y="-210" width="120" height="80" as="geometry" />
        </mxCell>
        <mxCell id="vGOoMCBMk2-ikO05M16r-8" value="" style="endArrow=none;html=1;rounded=0;exitX=1;exitY=0.5;exitDx=0;exitDy=0;" edge="1" source="vGOoMCBMk2-ikO05M16r-7" parent="1">
          <mxGeometry width="50" height="50" relative="1" as="geometry">
            <mxPoint x="120" y="645" as="sourcePoint" />
            <mxPoint x="320" y="470" as="targetPoint" />
          </mxGeometry>
        </mxCell>
        <mxCell id="vGOoMCBMk2-ikO05M16r-10" value="주요시설" style="ellipse;whiteSpace=wrap;html=1;" vertex="1" parent="1">
          <mxGeometry x="-140" y="-110" width="120" height="80" as="geometry" />
        </mxCell>
        <mxCell id="vGOoMCBMk2-ikO05M16r-11" value="" style="endArrow=none;html=1;rounded=0;exitX=0.967;exitY=0.638;exitDx=0;exitDy=0;exitPerimeter=0;" edge="1" parent="1" source="vGOoMCBMk2-ikO05M16r-10">
          <mxGeometry width="50" height="50" relative="1" as="geometry">
            <mxPoint x="-20" y="-70" as="sourcePoint" />
            <mxPoint x="320" y="470" as="targetPoint" />
          </mxGeometry>
        </mxCell>
        <mxCell id="vGOoMCBMk2-ikO05M16r-20" value="결제방법" style="ellipse;whiteSpace=wrap;html=1;" vertex="1" parent="1">
          <mxGeometry x="-140" y="280" width="120" height="80" as="geometry" />
        </mxCell>
        <mxCell id="vGOoMCBMk2-ikO05M16r-21" value="가격" style="ellipse;whiteSpace=wrap;html=1;" vertex="1" parent="1">
          <mxGeometry x="-140" y="180" width="120" height="80" as="geometry" />
        </mxCell>
        <mxCell id="vGOoMCBMk2-ikO05M16r-22" value="전화번호" style="ellipse;whiteSpace=wrap;html=1;" vertex="1" parent="1">
          <mxGeometry x="-140" y="85" width="120" height="80" as="geometry" />
        </mxCell>
        <mxCell id="vGOoMCBMk2-ikO05M16r-23" value="영업시간" style="ellipse;whiteSpace=wrap;html=1;" vertex="1" parent="1">
          <mxGeometry x="-140" y="-10" width="120" height="80" as="geometry" />
        </mxCell>
        <mxCell id="vGOoMCBMk2-ikO05M16r-24" value="편의시설" style="ellipse;whiteSpace=wrap;html=1;" vertex="1" parent="1">
          <mxGeometry x="-140" y="390" width="120" height="80" as="geometry" />
        </mxCell>
        <mxCell id="vGOoMCBMk2-ikO05M16r-25" value="홈페이지" style="ellipse;whiteSpace=wrap;html=1;" vertex="1" parent="1">
          <mxGeometry x="-140" y="485" width="120" height="80" as="geometry" />
        </mxCell>
        <mxCell id="vGOoMCBMk2-ikO05M16r-26" value="" style="ellipse;whiteSpace=wrap;html=1;" vertex="1" parent="1">
          <mxGeometry x="-140" y="580" width="120" height="80" as="geometry" />
        </mxCell>
        <mxCell id="vGOoMCBMk2-ikO05M16r-27" value="결제방법" style="ellipse;whiteSpace=wrap;html=1;" vertex="1" parent="1">
          <mxGeometry x="-140" y="680" width="120" height="80" as="geometry" />
        </mxCell>
      </root>
    </mxGraphModel>
  </diagram>
</mxfile>
